<svg width="40" height="42" viewBox="0 0 40 42" fill="none" xmlns="http://www.w3.org/2000/svg">
<path d="M39.7193 15.1012C39.5429 14.946 39.3048 14.8759 39.071 14.9077L12.1896 18.6896L1.21174 12.7179C0.958771 12.5798 0.652674 12.5861 0.406037 12.7328C0.157315 12.8795 0.00637801 13.1452 0.00637801 13.4344L0 18.158C0 18.4577 0.163688 18.7319 0.425166 18.8744L0.869466 19.1167L0.843956 35.0496C0.843956 35.3494 1.00764 35.6236 1.26912 35.7681L12.481 41.8693V41.8672C12.5022 41.8778 12.5256 41.8884 12.549 41.8948C12.5703 41.9054 12.5937 41.9139 12.6149 41.9203H12.617C12.6978 41.9501 12.785 41.965 12.87 41.9671H12.8806C12.9147 41.9671 12.9487 41.965 12.9827 41.9607L38.3822 38.3893C38.7839 38.3319 39.0837 37.9875 39.0858 37.5815L39.1135 21.2785L39.2878 21.2551C39.6896 21.1977 39.9893 20.8534 39.9893 20.4473L40 15.7195C40.0021 15.4835 39.8979 15.2564 39.7193 15.1012Z" fill="black"/>
<path d="M15.2494 15.7282C15.0687 15.7282 14.8923 15.6687 14.7477 15.556L11.3783 12.9242C11.0233 12.6479 10.9574 12.1377 11.2316 11.7805L20.0027 0.352072H20.0048C20.1366 0.179878 20.3322 0.0672091 20.549 0.039574C20.7637 0.0119378 20.9827 0.0714616 21.1527 0.207512L28.9693 6.31521C29.3222 6.59157 29.3881 7.10176 29.1138 7.4568L23.9736 14.1555C23.846 14.3213 23.6589 14.434 23.4506 14.4659L15.3745 15.7201C15.3341 15.7265 15.2919 15.7282 15.2494 15.7282ZM13.0173 12.1355L15.4705 14.0509L22.8728 12.9008L27.3243 7.10385L20.7938 2.00398L13.0173 12.1355Z" fill="black"/>
<path d="M12.0368 20.3496C11.9008 20.3496 11.7668 20.3156 11.6478 20.2518L0.432116 14.1507C0.123869 13.9827 -0.0419416 13.6362 0.0218292 13.2897C0.0834776 12.9432 0.359834 12.6775 0.708462 12.6286L12.1092 11.0236C12.394 10.9832 12.6768 11.0938 12.8575 11.317C13.0381 11.5402 13.0871 11.8421 12.9893 12.112L15.4722 14.0508L22.8746 12.9007L25.5914 9.36332C25.7211 9.19325 25.9146 9.08058 26.125 9.05295L27.8576 8.80848C28.0319 8.78297 28.2083 8.81698 28.3614 8.89989L39.5732 15.0011V14.9989C39.8815 15.169 40.0452 15.5155 39.9835 15.862C39.9198 16.2064 39.6434 16.4742 39.2969 16.5231L12.1521 20.3432C12.1139 20.3475 12.0751 20.3496 12.0368 20.3496ZM3.38493 13.898L12.1925 18.6875L36.6249 15.2521L27.8195 10.4626L26.6843 10.6221L23.9739 14.1552C23.8463 14.321 23.6593 14.4337 23.4509 14.4656L15.3748 15.7198C15.1516 15.7538 14.9242 15.6943 14.7477 15.5561L11.3783 12.9244H11.3762C11.3273 12.8861 11.2826 12.8415 11.2444 12.7926L3.38493 13.898Z" fill="black"/>
<path d="M12.1261 16.2131C11.6988 16.2152 11.3438 15.8857 11.3119 15.4606C11.28 15.0333 11.5797 14.6549 12.0028 14.5911L27.0301 12.259C27.4765 12.191 27.8932 12.495 27.9633 12.9414C28.0314 13.3857 27.7274 13.8045 27.2809 13.8725L12.2536 16.2046C12.2111 16.2109 12.1686 16.2131 12.1261 16.2131Z" fill="black"/>
</svg>
