<svg width="10" height="10" viewBox="0 0 10 10" fill="none" xmlns="http://www.w3.org/2000/svg">
<path d="M5.00935 9.99999C4.23665 10.0014 3.47412 9.82377 2.78164 9.48094C2.08915 9.13812 1.48554 8.63945 1.01819 8.0241C0.550843 7.40875 0.232476 6.69345 0.0880789 5.93436C-0.056318 5.17527 -0.0228146 4.39304 0.185959 3.64907C0.394733 2.90511 0.773095 2.21965 1.29135 1.64651C1.8096 1.07337 2.45363 0.62815 3.1729 0.345788C3.89216 0.063426 4.66709 -0.048389 5.43684 0.01912C6.20659 0.0866289 6.95021 0.331625 7.60935 0.734876C7.6854 0.782066 7.74008 0.857027 7.76179 0.943859C7.7835 1.03069 7.77053 1.12256 7.72563 1.19999C7.67765 1.27514 7.60271 1.32907 7.51621 1.3507C7.42971 1.37232 7.33821 1.36 7.26051 1.31627C6.45057 0.819651 5.49889 0.605415 4.55427 0.707058C3.60964 0.808701 2.72533 1.22049 2.03957 1.87805C1.35382 2.53561 0.905283 3.40187 0.764094 4.3414C0.622905 5.28092 0.797021 6.24075 1.25922 7.07082C1.72142 7.90089 2.44564 8.55441 3.31867 8.9292C4.19169 9.304 5.16431 9.37894 6.08444 9.14231C7.00458 8.90568 7.82037 8.37082 8.40427 7.62135C8.98817 6.87188 9.30727 5.95006 9.31168 4.99999C9.31163 4.73599 9.28514 4.47266 9.23261 4.21395C9.21473 4.12272 9.23351 4.02813 9.28487 3.95066C9.33623 3.87318 9.41604 3.81905 9.50702 3.79999C9.59768 3.78221 9.69169 3.80112 9.76842 3.85256C9.84515 3.90401 9.89834 3.98379 9.91633 4.07441C9.9785 4.38058 10.0097 4.69223 10.0093 5.00464C10.0069 6.32954 9.47917 7.5994 8.54188 8.53581C7.6046 9.47222 6.33425 9.99876 5.00935 9.99999ZM5.15354 6.4279L9.61865 1.96743C9.68398 1.90203 9.72067 1.81336 9.72067 1.72092C9.72067 1.62848 9.68398 1.53982 9.61865 1.47441C9.58659 1.4415 9.54825 1.41534 9.50591 1.39748C9.46358 1.37963 9.41809 1.37042 9.37214 1.37042C9.32619 1.37042 9.28071 1.37963 9.23837 1.39748C9.19603 1.41534 9.1577 1.4415 9.12563 1.47441L4.90702 5.68836L3.10702 3.88836C3.07496 3.85545 3.03662 3.8293 2.99429 3.81144C2.95195 3.79358 2.90646 3.78438 2.86051 3.78438C2.81456 3.78438 2.76908 3.79358 2.72674 3.81144C2.6844 3.8293 2.64607 3.85545 2.614 3.88836C2.54868 3.95377 2.51198 4.04243 2.51198 4.13488C2.51198 4.22732 2.54868 4.31598 2.614 4.38139L4.66051 6.4279C4.69272 6.46051 4.73111 6.48636 4.77345 6.50393C4.81578 6.5215 4.86119 6.53044 4.90702 6.53022C4.95297 6.53126 4.99863 6.5227 5.04108 6.50508C5.08353 6.48746 5.12183 6.46117 5.15354 6.4279Z" fill="#FC7E2A"/>
</svg>
