<svg width="47" height="47" viewBox="0 0 47 47" fill="none" xmlns="http://www.w3.org/2000/svg">
<rect width="47" height="47" fill="black"/>
<path d="M23.7354 10.521C25.0211 10.521 26.0422 11.542 26.0422 12.8277C26.0422 14.1134 25.0211 15.1344 23.7354 15.1344C22.4497 15.1344 21.4287 14.1134 21.4287 12.8277C21.4665 11.542 22.4875 10.521 23.7354 10.521Z" fill="white"/>
<path d="M20.332 20.5799V18.7647H21.0505V20.5799H26.4958V18.7647H27.2143V20.5799H29.0295V18.6135C29.0295 17.1009 28.1219 15.5883 26.3446 15.5883H21.1639C19.5379 15.5883 18.5168 16.9118 18.5168 18.5757V20.5799H20.332Z" fill="white"/>
<path d="M31 21H16V37H31V21Z" fill="white"/>
<path d="M11.646 11.9466C11.646 11.9466 11.15 11.2633 10.5778 10.6939V9.55516L11.4552 8.34045L9.96743 5L8.3652 8.37841L9.24261 9.44128V19.6904C7.83112 22.9549 6.19074 26.5231 6.19074 26.5611L6 26.9407L9.24261 28.7248V34.9122H7.37334V37H12.4089V34.9122H10.5397V29.446L12.9048 30.7367L13.0956 30.2052C13.1719 30.0154 14.8123 25.1186 14.9649 23.0688C15.3845 17.3369 11.913 12.2883 11.646 11.9466ZM14.0493 23.0308C13.9348 24.5872 12.8285 28.0795 12.4089 29.4081L7.1826 26.5611C8.02186 24.777 11.3026 17.5267 11.9511 15.2112C12.0274 14.9834 12.0656 14.7556 12.1037 14.5658C13.0956 16.5397 14.2782 19.6904 14.0493 23.0308Z" fill="white"/>
<path d="M39.1023 27.6927L38.4521 27.894L39.8951 32.5537L40.5453 32.3523L39.1023 27.6927Z" fill="white"/>
<path d="M41.0652 28.6113L40.4194 28.8264L41.8653 33.1673L42.5111 32.9522L41.0652 28.6113Z" fill="white"/>
<path d="M39.5421 35.7816L36.4413 25.5337H35.2312L34.3614 26.4413L35.4959 27.311L34.3614 28.2186L35.5337 29.1261L34.3993 29.9959L35.5337 30.8656L34.3614 31.7354L35.5337 32.6051L34.3993 33.4749L35.5337 34.3446L34.4749 35.1387C34.3993 35.2144 34.3236 35.3278 34.3236 35.4413C34.2858 35.6681 34.4749 35.895 34.7018 35.9329C41.2438 36.5757 42.5673 37.6345 42.5673 37.8614C42.5673 37.8614 42.3404 38.6934 37.5757 39.4497C34.1346 39.9791 29.5211 40.2816 24.643 40.2816C23.206 40.2816 21.8068 40.2438 20.4455 40.206C20.2186 40.206 19.9917 40.395 19.9917 40.6219C19.9917 40.8488 20.1808 41.0757 20.4077 41.0757C21.769 41.1135 23.1682 41.1513 24.643 41.1513C31.1472 41.1892 43.4371 40.5085 43.4371 37.8992C43.4371 37.0295 42.1514 36.311 39.5421 35.7816Z" fill="white"/>
</svg>
