<svg width="47" height="47" viewBox="0 0 47 47" fill="none" xmlns="http://www.w3.org/2000/svg">
<rect width="47" height="47" fill="#FCF3C2"/>
<path d="M14.7898 21C15.2448 20.2043 16.1048 19.6638 17.102 19.6638C17.6193 19.6638 18.1054 19.8156 18.5167 20.0707V19.2447C18.5167 18.2243 19.1275 17.3497 20 16.9245V11.4156C20 10.6503 19.3643 10.0247 18.579 10.0247C17.8 10.0247 17.1643 10.6503 17.1643 11.4156V17.5683C17.1643 17.9024 16.8839 18.1757 16.5411 18.1757C16.1983 18.1757 15.9178 17.9024 15.9178 17.5683V8.39696C15.9178 7.6256 15.2822 7 14.5031 7C13.7178 7 13.0822 7.6256 13.0822 8.39696V17.5683C13.0822 17.9024 12.8017 18.1757 12.4589 18.1757C12.1161 18.1757 11.8357 17.9024 11.8357 17.5683V9.97614C11.8357 9.21085 11.2 8.58525 10.421 8.58525C9.63569 8.58525 9 9.21085 9 9.97614V18.3518C9.1932 18.7588 9.36147 19.0503 9.47365 19.2265C10.421 19.2386 13.0074 19.4269 14.7898 21Z" fill="black"/>
<path d="M40.6707 14.444C40.4316 14.1885 40.0908 14.034 39.75 14.0518C39.212 14.0637 38.7337 14.4261 38.5962 14.9372C38.3033 16.0127 37.9805 16.8506 37.6995 17.4686C37.6995 17.4745 37.6995 17.4745 37.6935 17.4745C37.2511 18.455 36.8984 18.9007 36.8745 18.9304C36.7549 19.0789 36.5696 19.1681 36.3783 19.1503C36.1571 19.1443 30.9799 18.9423 30.5196 23.2029C30.4897 23.5297 30.1967 23.7674 29.862 23.7317C29.5391 23.6961 29.3 23.4049 29.3359 23.0781C29.7723 18.9958 33.7299 17.9559 36.0674 17.9559H36.0973C36.2049 17.7835 36.3663 17.4983 36.5517 17.1061V8.91171C36.5517 8.16299 35.9419 7.55093 35.1886 7.55093C34.4413 7.55093 33.8315 8.16299 33.8315 8.91171V16.3396C33.8315 16.6664 33.5625 16.9338 33.2337 16.9338C32.9049 16.9338 32.6359 16.6664 32.6359 16.3396V7.36672C32.6359 6.61205 32.0261 6 31.2728 6C30.5256 6 29.9158 6.61205 29.9158 7.36672V16.3396C29.9158 16.6664 29.6467 16.9338 29.3179 16.9338C28.9891 16.9338 28.7201 16.6664 28.7201 16.3396V10.32C28.7201 9.57131 28.1103 8.95925 27.363 8.95925C26.6098 8.95925 26 9.57131 26 10.32V18.3659C27.0043 18.7105 27.7337 19.6494 27.7337 20.7666V25.8175C28.1582 25.1638 28.8995 24.7301 29.7185 24.7182C30.3881 24.7241 31.0696 24.9915 31.5359 25.4966C32.0082 26.0017 32.2413 26.691 32.1696 27.3803L32.1337 27.7606C31.9663 29.4958 31.7152 32.1222 30.1549 34.2615C29.9756 34.5051 29.8022 34.7428 29.6348 34.9686C28.5348 36.4304 27.8114 37.399 27.7935 39.3183V41H36.6114V27.4635C36.6294 25.146 37.5381 23.9338 38.6859 22.4007C38.8533 22.1808 39.0267 21.9491 39.2 21.7114C40.5691 19.8336 40.7902 17.4983 40.9576 15.7988L40.9935 15.4066C41.0294 15.0501 40.9158 14.7114 40.6707 14.444Z" fill="black"/>
<path d="M29.2 33.6069C30.5691 31.7469 30.7902 29.4262 30.9576 27.7315L30.9935 27.3476C31.0294 26.9933 30.9158 26.6508 30.6707 26.391C30.4316 26.1371 30.1147 25.9895 29.75 26.0013C29.212 26.0131 28.7397 26.3733 28.5962 26.8811C28.3033 27.9499 27.9805 28.7766 27.6995 29.3967C27.6995 29.3967 27.6995 29.4026 27.6935 29.4026C27.2511 30.371 26.8984 30.8198 26.8745 30.8493C26.7549 30.9969 26.5696 31.0855 26.3783 31.0678C26.1571 31.0619 20.9799 30.8611 20.5196 35.095C20.4897 35.4198 20.1967 35.6501 19.862 35.6205C19.5391 35.5851 19.3 35.2899 19.3359 34.971C19.7723 30.9143 23.7299 29.8809 26.0674 29.8809H26.0973C26.2049 29.7037 26.3663 29.4262 26.5517 29.0365V20.8935C26.5517 20.1494 25.9419 19.5412 25.1886 19.5412C24.4413 19.5412 23.8315 20.1494 23.8315 20.8935V28.2688C23.8315 28.5995 23.5625 28.8593 23.2337 28.8593C22.9049 28.8593 22.6359 28.5995 22.6359 28.2688V19.3522C22.6359 18.6082 22.0261 18 21.2728 18C20.5256 18 19.9158 18.6082 19.9158 19.3522V28.2688C19.9158 28.5995 19.6467 28.8593 19.3179 28.8593C18.9891 28.8593 18.7201 28.5995 18.7201 28.2688V22.2929C18.7201 21.5489 18.1103 20.9407 17.363 20.9407C16.6098 20.9407 16 21.5489 16 22.2929V30.8788C16 32.7743 16.4424 34.6757 17.2674 36.3823C17.3033 36.465 17.3272 36.5535 17.3272 36.6421V41H26.6114V39.3289C26.6294 37.0259 27.5381 35.8213 28.6859 34.2978C28.8533 34.0793 29.0267 33.849 29.2 33.6069Z" fill="black"/>
<path d="M14.6714 22.0969C14.6714 22.0909 14.6655 22.0909 14.6655 22.0848C13.0616 20.0179 9.66243 20.1561 9.62652 20.1561C9.43502 20.1681 9.2495 20.084 9.12981 19.9338C9.10587 19.9037 8.75278 19.4531 8.30993 18.4676C8.30395 18.4616 8.30395 18.4616 8.30395 18.4556C8.02268 17.8307 7.69951 16.9835 7.40627 15.896C7.26863 15.3792 6.78987 15.0127 6.25127 15.0007C5.91015 14.9887 5.56904 15.1389 5.32966 15.3972C5.08429 15.6676 4.97059 16.0101 5.00649 16.3706L5.0424 16.7672C5.20997 18.4857 5.43139 20.8471 6.80184 22.7458C6.97539 22.9861 7.14894 23.2205 7.31651 23.4428C8.46553 24.993 9.37517 26.2188 9.39313 28.5561V41H16V36.6978C15.1322 34.8351 14.6714 32.7622 14.6714 30.7012V22.0969Z" fill="black"/>
</svg>
